<svg width="10" height="15" viewBox="0 0 10 15" fill="none" xmlns="http://www.w3.org/2000/svg">
<path fill-rule="evenodd" clip-rule="evenodd" d="M7.16931 11.5734L3.32556 13.9875C3.26212 14.0272 3.18825 14.047 3.11346 14.0444C3.03867 14.0417 2.96637 14.0168 2.90588 13.9727C2.84538 13.9287 2.79946 13.8675 2.774 13.7971C2.74855 13.7268 2.74474 13.6504 2.76306 13.5778L3.86931 9.17625L0.386495 6.26625C0.328707 6.21829 0.286649 6.15409 0.265767 6.08195C0.244885 6.00982 0.24614 5.93308 0.269372 5.86167C0.292603 5.79025 0.336739 5.72746 0.396065 5.68142C0.455392 5.63538 0.52718 5.60821 0.602123 5.60344L5.13024 5.29781L6.82149 1.08469C6.84945 1.01533 6.8975 0.955911 6.95948 0.914068C7.02146 0.872226 7.09453 0.849869 7.16931 0.849869C7.24409 0.849869 7.31716 0.872226 7.37914 0.914068C7.44111 0.955911 7.48917 1.01533 7.51712 1.08469L9.20837 5.29781L13.7365 5.60344C13.8114 5.60821 13.8832 5.63538 13.9426 5.68142C14.0019 5.72746 14.046 5.79025 14.0692 5.86167C14.0925 5.93308 14.0937 6.00982 14.0728 6.08195C14.052 6.15409 14.0099 6.21829 13.9521 6.26625L10.4693 9.17625L11.5765 13.5778C11.5948 13.6504 11.591 13.7268 11.5655 13.7971C11.5401 13.8675 11.4942 13.9287 11.4337 13.9727C11.3732 14.0168 11.3009 14.0417 11.2261 14.0444C11.1513 14.047 11.0774 14.0272 11.014 13.9875L7.16931 11.5734Z" fill="#BF0036"/>
</svg>
