<svg width="15" height="15" viewBox="0 0 15 15" fill="none" xmlns="http://www.w3.org/2000/svg">
<path fill-rule="evenodd" clip-rule="evenodd" d="M7.16927 11.5734L3.32552 13.9875C3.26208 14.0272 3.18821 14.047 3.11342 14.0444C3.03862 14.0417 2.96633 14.0168 2.90584 13.9727C2.84534 13.9287 2.79942 13.8675 2.77397 13.7971C2.74851 13.7268 2.7447 13.6504 2.76302 13.5778L3.86927 9.17625L0.385519 6.26625C0.327731 6.21829 0.285672 6.15409 0.26479 6.08195C0.243908 6.00982 0.245164 5.93308 0.268396 5.86167C0.291627 5.79025 0.335764 5.72746 0.395091 5.68142C0.454417 5.63538 0.5262 5.60821 0.601144 5.60344L5.12927 5.29781L6.82052 1.08469C6.84847 1.01533 6.89653 0.955911 6.9585 0.914068C7.02048 0.872226 7.09355 0.849869 7.16833 0.849869C7.24311 0.849869 7.31618 0.872226 7.37816 0.914068C7.44014 0.955911 7.48819 1.01533 7.51614 1.08469L9.20739 5.29781L13.7355 5.60344C13.8105 5.60821 13.8822 5.63538 13.9416 5.68142C14.0009 5.72746 14.045 5.79025 14.0683 5.86167C14.0915 5.93308 14.0928 6.00982 14.0719 6.08195C14.051 6.15409 14.0089 6.21829 13.9511 6.26625L10.4693 9.17625L11.5765 13.5778C11.5948 13.6504 11.591 13.7268 11.5655 13.7971C11.5401 13.8675 11.4941 13.9287 11.4336 13.9727C11.3731 14.0168 11.3009 14.0417 11.2261 14.0444C11.1513 14.047 11.0774 14.0272 11.014 13.9875L7.16927 11.5734Z" fill="#BF0036"/>
</svg>
